<svg width="42" height="36" viewBox="0 0 42 36" fill="none" xmlns="http://www.w3.org/2000/svg">
<path d="M34.3109 27.6382H29.2093C29.0516 27.6382 28.9004 27.5755 28.7889 27.464C28.6774 27.3525 28.6147 27.2013 28.6147 27.0436C28.6147 26.8859 28.6774 26.7346 28.7889 26.6231C28.9004 26.5116 29.0516 26.449 29.2093 26.449H34.3109C35.8877 26.4466 37.4052 25.8477 38.5586 24.7725C39.712 23.6974 40.4158 22.2256 40.5288 20.6529C40.6417 19.0802 40.1553 17.5229 39.1674 16.294C38.1795 15.0651 36.7631 14.2555 35.2028 14.0279C35.1168 14.0159 35.0343 13.9852 34.9614 13.938C34.8885 13.8907 34.8268 13.8281 34.7807 13.7544C34.7349 13.6805 34.7058 13.5975 34.6955 13.5113C34.6853 13.425 34.694 13.3375 34.7212 13.2549C35.1752 11.9138 35.3034 10.4839 35.0953 9.08348C34.8871 7.68302 34.3485 6.35224 33.524 5.20122C32.6995 4.05019 31.6128 3.11199 30.3538 2.46421C29.0949 1.81644 27.6998 1.4777 26.2839 1.47601C24.4857 1.4625 22.726 1.99689 21.239 3.00807C19.7519 4.01925 18.6081 5.45928 17.9596 7.13655C17.9299 7.21258 17.8849 7.2817 17.8274 7.33958C17.7698 7.39746 17.701 7.44288 17.6251 7.473C17.5493 7.50312 17.468 7.5173 17.3864 7.51465C17.3049 7.51201 17.2247 7.4926 17.1509 7.45763C16.2895 7.04537 15.347 6.83007 14.392 6.82736C12.6574 6.82736 10.9938 7.51645 9.76716 8.74304C8.54058 9.96963 7.85148 11.6332 7.85148 13.3679C7.85148 13.5256 7.78884 13.6768 7.67733 13.7883C7.56582 13.8999 7.41459 13.9625 7.25689 13.9625C5.60108 13.9988 4.02749 14.6913 2.88231 15.8878C1.73712 17.0843 1.11413 18.6867 1.1504 20.3425C1.18667 21.9983 1.87923 23.5719 3.07571 24.7171C4.27219 25.8623 5.87459 26.4853 7.5304 26.449H12.632C12.7897 26.449 12.941 26.5116 13.0525 26.6231C13.164 26.7346 13.2266 26.8859 13.2266 27.0436C13.2266 27.2013 13.164 27.3525 13.0525 27.464C12.941 27.5755 12.7897 27.6382 12.632 27.6382H7.55419C5.65251 27.6521 3.81794 26.936 2.42861 25.6374C1.03927 24.3388 0.201046 22.5567 0.0866912 20.6585C-0.0276635 18.7602 0.590569 16.8903 1.81397 15.4344C3.03737 13.9784 4.7727 13.0472 6.6623 12.8328C6.79803 10.8768 7.67195 9.04559 9.1071 7.70979C10.5423 6.37399 12.4314 5.63347 14.392 5.63817C15.3246 5.63644 16.2497 5.80572 17.1212 6.13763C18.1919 3.85611 20.0763 2.05685 22.4048 1.09268C24.7333 0.12851 27.3381 0.0689878 29.7082 0.925785C32.0784 1.78258 34.0429 3.49389 35.2167 5.72413C36.3905 7.95436 36.6888 10.5426 36.0531 12.9814C37.8207 13.4087 39.3704 14.4693 40.4086 15.9623C41.4469 17.4553 41.9018 19.2772 41.6871 21.083C41.4725 22.8888 40.6032 24.5533 39.2439 25.7613C37.8845 26.9694 36.1295 27.6371 34.3109 27.6382Z" fill="#0C9F77"/>
<path d="M28.3831 35.463H13.4826C13.1057 35.463 12.7443 35.3133 12.4777 35.0467C12.2112 34.7802 12.0615 34.4188 12.0615 34.0419V24.5284C12.0615 24.1515 12.2112 23.79 12.4777 23.5235C12.7443 23.257 13.1057 23.1073 13.4826 23.1073H28.3831C28.76 23.1073 29.1215 23.257 29.388 23.5235C29.6545 23.79 29.8042 24.1515 29.8042 24.5284V34.0419C29.8042 34.4188 29.6545 34.7802 29.388 35.0467C29.1215 35.3133 28.76 35.463 28.3831 35.463ZM13.4826 24.2965C13.4211 24.2965 13.3621 24.3209 13.3186 24.3644C13.2751 24.4079 13.2507 24.4669 13.2507 24.5284V34.0419C13.2507 34.1034 13.2751 34.1624 13.3186 34.2059C13.3621 34.2494 13.4211 34.2738 13.4826 34.2738H28.3831C28.4136 34.2738 28.4438 34.2678 28.4719 34.2561C28.5 34.2445 28.5256 34.2274 28.5471 34.2059C28.5687 34.1843 28.5857 34.1588 28.5974 34.1306C28.609 34.1025 28.615 34.0723 28.615 34.0419V24.5284C28.615 24.4979 28.609 24.4678 28.5974 24.4396C28.5857 24.4115 28.5687 24.3859 28.5471 24.3644C28.5256 24.3429 28.5 24.3258 28.4719 24.3141C28.4438 24.3025 28.4136 24.2965 28.3831 24.2965H13.4826Z" fill="#0C9F77"/>
<path d="M26.3731 24.2965H15.4921C15.3344 24.2965 15.1831 24.2339 15.0716 24.1224C14.9601 24.0109 14.8975 23.8596 14.8975 23.702V19.1949C14.8975 17.5943 15.5333 16.0592 16.6651 14.9274C17.7969 13.7956 19.332 13.1598 20.9326 13.1598C22.5332 13.1598 24.0683 13.7956 25.2001 14.9274C26.3319 16.0592 26.9677 17.5943 26.9677 19.1949V23.702C26.9677 23.8596 26.9051 24.0109 26.7936 24.1224C26.6821 24.2339 26.5308 24.2965 26.3731 24.2965ZM16.0867 23.1074H25.7785V19.1949C25.7785 17.9097 25.268 16.6771 24.3592 15.7683C23.4504 14.8595 22.2178 14.349 20.9326 14.349C19.6474 14.349 18.4148 14.8595 17.506 15.7683C16.5972 16.6771 16.0867 17.9097 16.0867 19.1949V23.1074ZM20.9326 30.4625C20.5396 30.4625 20.1554 30.3459 19.8286 30.1274C19.5019 29.9089 19.2474 29.5984 19.0973 29.2352C18.9471 28.8719 18.9081 28.4723 18.9853 28.0869C19.0624 27.7015 19.2521 27.3477 19.5304 27.0702C19.8088 26.7927 20.1632 26.604 20.5488 26.528C20.9344 26.4521 21.3339 26.4923 21.6967 26.6435C22.0595 26.7947 22.3692 27.0502 22.5867 27.3775C22.8042 27.7049 22.9197 28.0895 22.9185 28.4825C22.917 29.0082 22.707 29.5118 22.3348 29.8829C21.9625 30.2541 21.4583 30.4625 20.9326 30.4625ZM20.9326 27.6857C20.775 27.6857 20.621 27.7325 20.4899 27.82C20.3589 27.9076 20.2568 28.032 20.1965 28.1776C20.1362 28.3232 20.1204 28.4834 20.1511 28.6379C20.1819 28.7925 20.2578 28.9345 20.3692 29.0459C20.4806 29.1573 20.6226 29.2332 20.7772 29.2639C20.9317 29.2947 21.0919 29.2789 21.2375 29.2186C21.3831 29.1583 21.5075 29.0562 21.5951 28.9251C21.6826 28.7941 21.7294 28.6401 21.7294 28.4825C21.7294 28.3779 21.7087 28.2743 21.6687 28.1776C21.6287 28.0809 21.57 27.9931 21.496 27.9191C21.422 27.8451 21.3342 27.7864 21.2375 27.7464C21.1408 27.7063 21.0372 27.6857 20.9326 27.6857Z" fill="#0C9F77"/>
<path d="M20.9325 32.0739C20.7748 32.0739 20.6236 32.0112 20.512 31.8997C20.4005 31.7882 20.3379 31.637 20.3379 31.4793V29.8679C20.3379 29.7102 20.4005 29.559 20.512 29.4475C20.6236 29.336 20.7748 29.2733 20.9325 29.2733C21.0902 29.2733 21.2414 29.336 21.3529 29.4475C21.4644 29.559 21.5271 29.7102 21.5271 29.8679V31.4793C21.5271 31.637 21.4644 31.7882 21.3529 31.8997C21.2414 32.0112 21.0902 32.0739 20.9325 32.0739Z" fill="#0C9F77"/>
</svg>
