<svg width="512" height="512" viewBox="0 0 512 512" fill="none" xmlns="http://www.w3.org/2000/svg">
<path fill-rule="evenodd" clip-rule="evenodd" d="M255.182 7.758C301.335 8.28467 343.03 19.628 380.268 41.788C417.06 63.5051 447.666 94.298 469.158 131.222C491.182 168.683 502.457 210.63 502.983 257.065C501.675 320.598 481.636 374.862 442.866 419.855C404.096 464.85 354.441 492.685 303.039 503.356V325.23H351.636L362.626 255.23H289.039V209.382C288.63 199.877 291.636 190.54 297.513 183.059C303.397 175.557 313.761 171.614 328.603 171.23H373.039V109.912C372.401 109.707 366.351 108.895 354.889 107.478C341.889 105.957 328.817 105.144 315.729 105.044C286.107 105.181 262.68 113.537 245.448 130.112C228.214 146.682 219.411 170.655 219.039 202.032V255.23H163.039V325.23H219.039V503.357C155.924 492.687 106.269 464.851 67.4988 419.857C28.7288 374.863 8.69081 320.598 7.38281 257.065C7.90615 210.628 19.1808 168.681 41.2068 131.222C62.6993 94.2976 93.3052 63.5044 130.098 41.787C167.334 19.6317 209.028 8.28934 255.182 7.758Z" fill="white"/>
</svg>
