<svg width="512" height="512" viewBox="0 0 512 512" fill="none" xmlns="http://www.w3.org/2000/svg">
<g clip-path="url(#clip0_323_5326)">
<path fill-rule="evenodd" clip-rule="evenodd" d="M256 0C397.39 0 512 114.61 512 256C512 397.39 397.39 512 256 512C114.61 512 0 397.39 0 256C0 114.61 114.61 0 256 0ZM202.44 126.87C154.28 129.07 128.98 156.17 126.88 202.44C125.28 237.47 125.28 274.53 126.88 309.56C128.98 355.83 154.28 382.93 202.44 385.13C237.48 386.72 274.53 386.72 309.57 385.13C355.84 383.01 382.93 357.75 385.13 309.56C386.72 274.52 386.72 237.49 385.13 202.44C382.97 155.28 356.73 129.03 309.57 126.87C274.53 125.28 237.48 125.28 202.44 126.87ZM308.5 150.26C343.49 151.85 360.16 168.51 361.74 203.51C363.32 237.81 363.32 274.19 361.74 308.49C360.11 344.5 342.58 360.19 308.5 361.74C274.18 363.31 237.83 363.31 203.51 361.74C169.42 360.19 151.9 344.5 150.26 308.49C148.69 274.19 148.69 237.81 150.26 203.51C151.81 169.41 167.51 151.9 203.51 150.26C237.83 148.69 274.18 148.69 308.5 150.26ZM256 299.3C232.09 299.3 212.7 279.92 212.7 256C212.71 232.08 232.09 212.7 256 212.7C279.92 212.7 299.31 232.08 299.31 256C299.31 279.91 279.92 299.3 256 299.3ZM256 189.29C219.17 189.29 189.29 219.16 189.29 256C189.29 292.84 219.16 322.71 256 322.71C292.85 322.71 322.71 292.84 322.71 256C322.71 219.16 292.85 189.29 256 189.29ZM340.94 186.65C340.94 195.26 333.96 202.25 325.35 202.25C316.73 202.25 309.76 195.27 309.76 186.66C309.76 178.05 316.73 171.07 325.35 171.07C333.96 171.07 340.94 178.05 340.94 186.65Z" fill="white"/>
</g>
<defs>
<clipPath id="clip0_323_5326">
<rect width="512" height="512" fill="white"/>
</clipPath>
</defs>
</svg>
