<svg width="44" height="44" viewBox="0 0 44 44" fill="none" xmlns="http://www.w3.org/2000/svg">
<path d="M6.27267 32.5373H18.979V34.81H18.2019C17.5994 34.8107 17.0217 35.0503 16.5957 35.4764C16.1696 35.9024 15.9299 36.4801 15.9292 37.0826V37.719C15.9292 37.8652 15.9873 38.0053 16.0906 38.1086C16.1939 38.212 16.3341 38.27 16.4802 38.27H26.7806C26.9268 38.27 27.0669 38.212 27.1702 38.1086C27.2735 38.0053 27.3316 37.8652 27.3316 37.719V37.0826C27.3309 36.4801 27.0912 35.9024 26.6652 35.4764C26.2391 35.0503 25.6614 34.8107 25.0589 34.81H24.2819V32.5373H36.9882C37.5907 32.5366 38.1684 32.2969 38.5944 31.8709C39.0205 31.4448 39.2601 30.8672 39.2608 30.2646V8.27267C39.2602 7.67013 39.0205 7.09246 38.5944 6.66639C38.1684 6.24033 37.5907 6.00067 36.9882 6H6.27267C5.67013 6.00067 5.09246 6.24033 4.66639 6.66639C4.24033 7.09246 4.00067 7.67013 4 8.27267V30.2646C4.00069 30.8672 4.24036 31.4448 4.66641 31.8709C5.09247 32.2969 5.67013 32.5366 6.27267 32.5373ZM26.2297 37.0826V37.1681H17.0312V37.0826C17.0315 36.7722 17.155 36.4746 17.3744 36.2552C17.5939 36.0357 17.8915 35.9122 18.2019 35.9119H25.0589C25.3693 35.9122 25.6669 36.0357 25.8864 36.2551C26.1059 36.4746 26.2293 36.7722 26.2297 37.0826V37.0826ZM23.18 34.81H20.0809V32.5373H23.18V34.81ZM36.9882 31.4354H6.27267C5.96227 31.435 5.66468 31.3116 5.44519 31.0921C5.22571 30.8726 5.10225 30.575 5.1019 30.2646V29.2486H38.1589V30.2646C38.1586 30.575 38.0351 30.8726 37.8156 31.0921C37.5962 31.3116 37.2986 31.435 36.9882 31.4354ZM6.27267 7.10197H36.9882C37.2986 7.10232 37.5962 7.22578 37.8156 7.44526C38.0351 7.66475 38.1586 7.96234 38.1589 8.27274V28.1467H5.1019V8.27267C5.10227 7.96228 5.22573 7.66471 5.44522 7.44524C5.6647 7.22577 5.96228 7.10232 6.27267 7.10197ZM22.1814 30.3119V30.3721C22.1814 30.5182 22.1233 30.6584 22.02 30.7617C21.9167 30.865 21.7765 30.9231 21.6304 30.9231C21.4843 30.9231 21.3442 30.865 21.2408 30.7617C21.1375 30.6584 21.0795 30.5182 21.0795 30.3721V30.3119C21.0795 30.1657 21.1375 30.0256 21.2408 29.9223C21.3442 29.819 21.4843 29.7609 21.6304 29.7609C21.7765 29.7609 21.9167 29.819 22.02 29.9223C22.1233 30.0256 22.1814 30.1657 22.1814 30.3119ZM18.8819 17.5453V21.9747C18.5232 22.0739 18.2069 22.2879 17.9814 22.5839C17.7558 22.8799 17.6335 23.2417 17.633 23.6138V24.763C17.633 24.9092 17.691 25.0493 17.7944 25.1526C17.8977 25.2559 18.0378 25.314 18.1839 25.314H35.17C35.3161 25.314 35.4563 25.2559 35.5596 25.1526C35.6629 25.0493 35.721 24.9092 35.721 24.763V23.6136C35.7206 23.2859 35.6257 22.9654 35.4476 22.6903C35.2695 22.4153 35.0158 22.1975 34.7169 22.0631V12.9485C34.7169 12.8024 34.6589 12.6623 34.5556 12.5589C34.4522 12.4556 34.3121 12.3976 34.166 12.3976H31.8677C31.7216 12.3976 31.5814 12.4556 31.4781 12.5589C31.3748 12.6623 31.3167 12.8024 31.3167 12.9485V21.9134H30.5721V16.0878C30.5721 15.9416 30.5141 15.8015 30.4108 15.6982C30.3074 15.5949 30.1673 15.5368 30.0212 15.5368H27.7228C27.5766 15.5368 27.4365 15.5949 27.3332 15.6982C27.2299 15.8015 27.1718 15.9416 27.1718 16.0878V21.9134H26.4272V14.4618C26.4272 14.3157 26.3692 14.1756 26.2658 14.0723C26.1625 13.9689 26.0224 13.9109 25.8762 13.9109H23.5778C23.4317 13.9109 23.2916 13.9689 23.1882 14.0723C23.0849 14.1756 23.0269 14.3157 23.0269 14.4618V21.9134H22.2823V17.5453C22.2823 17.3992 22.2242 17.259 22.1209 17.1557C22.0176 17.0524 21.8774 16.9944 21.7313 16.9944H19.4329C19.2868 16.9944 19.1466 17.0524 19.0433 17.1557C18.94 17.259 18.8819 17.3992 18.8819 17.5453ZM34.6192 24.2118H18.7349V23.6136C18.7351 23.455 18.7982 23.303 18.9104 23.1908C19.0225 23.0787 19.1746 23.0156 19.3332 23.0153H34.021C34.1795 23.0156 34.3316 23.0787 34.4437 23.1908C34.5559 23.303 34.619 23.455 34.6192 23.6136V24.2118ZM32.4186 13.4995H33.6152V21.9134H32.4186V13.4995ZM28.2737 16.6387H29.4702V21.9134H28.2737V16.6387ZM24.1288 15.013H25.3253V21.9137H24.1288V15.013ZM21.1804 18.0963V21.9134H19.9838V18.0963H21.1804ZM19.7059 15.3411C19.6119 15.2292 19.5662 15.0845 19.5789 14.939C19.5916 14.7934 19.6616 14.6588 19.7735 14.5649L24.2237 10.828C24.3027 10.7617 24.3987 10.7189 24.5007 10.7044C24.6028 10.69 24.7069 10.7044 24.8011 10.7462L28.9341 12.576L32.1244 9.84839L31.4475 9.78834C31.3751 9.78242 31.3045 9.76223 31.2399 9.72894C31.1753 9.69564 31.118 9.64989 31.0711 9.59432C31.0243 9.53875 30.9889 9.47447 30.967 9.40517C30.9451 9.33586 30.9371 9.26291 30.9436 9.19052C30.95 9.11813 30.9707 9.04772 31.0044 8.98336C31.0382 8.91899 31.0843 8.86194 31.1402 8.81549C31.1961 8.76903 31.2607 8.7341 31.3301 8.7127C31.3996 8.69129 31.4726 8.68384 31.5449 8.69077L33.5273 8.86666C33.5994 8.87306 33.6695 8.89358 33.7336 8.92707C33.7978 8.96056 33.8547 9.00635 33.9011 9.06183C33.9476 9.11732 33.9826 9.18141 34.0043 9.25044C34.026 9.31947 34.0338 9.3921 34.0274 9.46417L33.8515 11.4466C33.8394 11.5836 33.7764 11.7112 33.6749 11.8041C33.5735 11.897 33.4409 11.9487 33.3033 11.9488C33.287 11.9488 33.2706 11.9481 33.254 11.9467C33.182 11.9403 33.1118 11.9198 33.0477 11.8863C32.9836 11.8528 32.9267 11.807 32.8802 11.7515C32.8338 11.696 32.7987 11.6319 32.777 11.5629C32.7554 11.4939 32.7475 11.4213 32.7539 11.3492L32.8105 10.7115L29.3864 13.6391C29.3074 13.7066 29.2109 13.7504 29.1081 13.7654C29.0053 13.7805 28.9003 13.7661 28.8053 13.7241L24.6692 11.8928L20.482 15.4087C20.3701 15.5027 20.2254 15.5483 20.0798 15.5357C19.9343 15.523 19.7997 15.453 19.7057 15.3411H19.7059ZM14.6039 17.4185C15.5917 17.4208 16.5452 17.0565 17.2798 16.3962C18.0144 15.7359 18.4778 14.8266 18.5804 13.8442C18.5885 13.7673 18.5804 13.6897 18.5566 13.6162C18.5328 13.5427 18.4937 13.4751 18.4421 13.4177C18.3904 13.3603 18.3272 13.3144 18.2567 13.2829C18.1861 13.2515 18.1097 13.2353 18.0325 13.2353H14.7881V9.99088C14.7881 9.91364 14.7719 9.83726 14.7404 9.7667C14.709 9.69615 14.6631 9.63298 14.6057 9.58132C14.5483 9.52965 14.4806 9.49063 14.4072 9.4668C14.3337 9.44296 14.256 9.43484 14.1792 9.44296C13.1613 9.55178 12.2238 10.0468 11.56 10.8262C10.8962 11.6055 10.5565 12.6097 10.6109 13.632C10.6653 14.6543 11.1098 15.6168 11.8526 16.3212C12.5955 17.0256 13.5802 17.4184 14.6039 17.4185ZM13.6862 10.6698V13.7862C13.6862 13.9324 13.7442 14.0725 13.8476 14.1758C13.9509 14.2791 14.091 14.3372 14.2371 14.3372H17.3537C17.1971 14.8055 16.9235 15.226 16.5588 15.5589C16.1941 15.8918 15.7503 16.1259 15.2697 16.2392C14.7891 16.3524 14.2875 16.341 13.8126 16.2059C13.3376 16.0709 12.905 15.8167 12.5559 15.4676C12.2067 15.1184 11.9526 14.6858 11.8175 14.2109C11.6825 13.7359 11.671 13.2343 11.7843 12.7537C11.8975 12.2731 12.1317 11.8294 12.4646 11.4647C12.7974 11.1 13.2179 10.8263 13.6862 10.6698ZM15.5651 12.9774H18.6268C18.7041 12.9774 18.7805 12.9611 18.851 12.9297C18.9216 12.8983 18.9847 12.8524 19.0364 12.795C19.0881 12.7376 19.1271 12.6699 19.1509 12.5964C19.1748 12.523 19.1829 12.4453 19.1748 12.3685C19.075 11.4608 18.6687 10.6142 18.023 9.96852C17.3773 9.3228 16.5308 8.91653 15.6231 8.81673C15.5462 8.8086 15.4686 8.81672 15.3951 8.84055C15.3216 8.86438 15.254 8.9034 15.1966 8.95507C15.1391 9.00673 15.0932 9.0699 15.0618 9.14046C15.0304 9.21103 15.0141 9.28741 15.0141 9.36465V12.4264C15.0141 12.5725 15.0722 12.7127 15.1755 12.816C15.2788 12.9193 15.4189 12.9774 15.5651 12.9774ZM16.116 10.0454C16.5412 10.1892 16.9274 10.4292 17.2448 10.7466C17.5622 11.064 17.8021 11.4503 17.9459 11.8755H16.116V10.0454ZM7.92125 23.2616L8.58184 23.475C8.59699 23.5284 8.61336 23.5813 8.63095 23.634L8.20499 24.1824C8.12809 24.2814 8.08725 24.4036 8.0892 24.529C8.09116 24.6543 8.13579 24.7752 8.21574 24.8718L9.01234 25.8339C9.09226 25.9303 9.20266 25.9967 9.32535 26.022C9.44804 26.0473 9.57569 26.03 9.68726 25.9731L10.3056 25.6569C10.354 25.684 10.403 25.71 10.4525 25.7348L10.5391 26.4235C10.5547 26.5478 10.6123 26.6632 10.7023 26.7504C10.7923 26.8376 10.9093 26.8916 11.0341 26.9033L12.2778 27.0204C12.2952 27.0221 12.3125 27.0229 12.3298 27.0229C12.4462 27.0228 12.5596 26.9859 12.6537 26.9173C12.7478 26.8488 12.8178 26.7522 12.8536 26.6414L13.0671 25.9808C13.1204 25.9656 13.1734 25.9493 13.226 25.9317L13.7745 26.3577C13.8735 26.4346 13.9957 26.4754 14.121 26.4735C14.2463 26.4715 14.3672 26.4269 14.4638 26.3469L15.426 25.5503C15.5224 25.4704 15.5888 25.36 15.6141 25.2373C15.6394 25.1146 15.6221 24.9869 15.5651 24.8754L15.249 24.2571C15.276 24.2086 15.302 24.1596 15.3269 24.1101L16.0155 24.0235C16.1399 24.0078 16.2552 23.9503 16.3424 23.8603C16.4296 23.7703 16.4836 23.6533 16.4954 23.5285L16.6124 22.2848C16.6242 22.16 16.5931 22.035 16.5242 21.9303C16.4553 21.8257 16.3529 21.7476 16.2336 21.709L15.573 21.4955C15.5579 21.4422 15.5416 21.3892 15.524 21.3366L15.95 20.7881C16.0269 20.6891 16.0677 20.5669 16.0657 20.4416C16.0637 20.3163 16.0191 20.1954 15.9392 20.0988L15.143 19.1366C15.0631 19.0401 14.9527 18.9738 14.83 18.9485C14.7073 18.9232 14.5796 18.9404 14.4681 18.9974L13.8498 19.3136C13.8014 19.2864 13.7524 19.2605 13.7028 19.2357L13.6162 18.547C13.6006 18.4226 13.543 18.3073 13.453 18.2201C13.363 18.1329 13.246 18.0789 13.1212 18.0672L11.8776 17.9501C11.7528 17.9384 11.6278 17.9695 11.5231 18.0383C11.4184 18.1072 11.3404 18.2097 11.3017 18.3289L11.0883 18.9896C11.0349 19.0046 10.982 19.021 10.9294 19.0387L10.3809 18.6126C10.2819 18.5357 10.1596 18.4948 10.0343 18.4968C9.90898 18.4988 9.78806 18.5434 9.69153 18.6234L8.72943 19.42C8.63295 19.4999 8.5666 19.6103 8.54129 19.733C8.51599 19.8557 8.53326 19.9833 8.59024 20.0949L8.90642 20.7132C8.87933 20.7616 8.85339 20.8106 8.8286 20.8602L8.13991 20.9467C8.01554 20.9624 7.90022 21.0199 7.81297 21.1099C7.72573 21.1999 7.67178 21.317 7.66003 21.4418L7.5422 22.6859C7.53052 22.8107 7.5617 22.9357 7.63061 23.0403C7.69952 23.145 7.80204 23.223 7.92125 23.2616ZM8.7149 21.9853L9.27349 21.9151C9.37207 21.9027 9.46547 21.8639 9.54379 21.8027C9.62211 21.7416 9.68244 21.6604 9.71838 21.5678C9.78911 21.3858 9.8808 21.2128 9.99159 21.052C10.048 20.9702 10.0812 20.8746 10.0876 20.7754C10.0941 20.6763 10.0737 20.5772 10.0284 20.4887L9.7719 19.9871L10.0533 19.754L10.4983 20.0996C10.5768 20.1605 10.6703 20.1991 10.769 20.2112C10.8676 20.2233 10.9677 20.2086 11.0586 20.1685C11.2372 20.0896 11.4244 20.0319 11.6164 19.9963C11.7141 19.9782 11.805 19.9341 11.8797 19.8686C11.9543 19.803 12.0099 19.7185 12.0404 19.624L12.2137 19.0884L12.5775 19.1228L12.6477 19.6814C12.66 19.78 12.6989 19.8734 12.76 19.9517C12.8211 20.03 12.9023 20.0904 12.995 20.1263C13.1769 20.197 13.35 20.2887 13.5108 20.3995C13.5926 20.4559 13.6882 20.4891 13.7874 20.4956C13.8866 20.5021 13.9857 20.4816 14.0741 20.4363L14.5758 20.1797L14.8088 20.4612L14.4632 20.9062C14.4023 20.9847 14.3637 21.0783 14.3516 21.1769C14.3395 21.2756 14.3542 21.3756 14.3944 21.4666C14.4732 21.6452 14.531 21.8324 14.5665 22.0244C14.5846 22.1221 14.6287 22.213 14.6943 22.2877C14.7598 22.3623 14.8443 22.4179 14.9388 22.4484L15.4744 22.6216L15.44 22.9854L14.8815 23.0556C14.7829 23.068 14.6895 23.1068 14.6111 23.168C14.5328 23.2291 14.4725 23.3103 14.4365 23.4029C14.3658 23.5849 14.2741 23.758 14.1632 23.9187C14.1069 24.0006 14.0737 24.0961 14.0672 24.1953C14.0607 24.2945 14.0812 24.3936 14.1265 24.482L14.383 24.9837L14.1016 25.2167L13.6566 24.8711C13.5781 24.8101 13.4845 24.7715 13.3859 24.7594C13.2872 24.7473 13.1871 24.7621 13.0962 24.8022C12.9176 24.8811 12.7304 24.9389 12.5384 24.9744C12.4407 24.9924 12.3497 25.0366 12.275 25.1021C12.2003 25.1677 12.1448 25.2522 12.1142 25.3467L11.9411 25.8824L11.5772 25.8479L11.5074 25.2892C11.495 25.1906 11.4562 25.0972 11.395 25.0189C11.3339 24.9406 11.2527 24.8802 11.1601 24.8443C10.9782 24.7735 10.8051 24.6818 10.6443 24.571C10.5625 24.5147 10.4669 24.4815 10.3677 24.475C10.2685 24.4685 10.1695 24.489 10.081 24.5343L9.57934 24.7907L9.34622 24.5093L9.69187 24.0643C9.75283 23.9858 9.79142 23.8922 9.80354 23.7936C9.81567 23.6949 9.80088 23.5948 9.76074 23.5039C9.68187 23.3253 9.62409 23.1381 9.58857 22.9461C9.5705 22.8484 9.52637 22.7574 9.46085 22.6828C9.39532 22.6081 9.31084 22.5526 9.21633 22.522L8.68067 22.3488L8.7149 21.9853ZM11.8908 24.4697C11.9541 24.4756 12.0168 24.4785 12.079 24.4785C12.5997 24.4782 13.0997 24.2743 13.4721 23.9103C13.8445 23.5463 14.0597 23.051 14.0718 22.5304C14.0838 22.0098 13.8918 21.5052 13.5367 21.1243C13.1816 20.7434 12.6916 20.5165 12.1714 20.4922C11.6512 20.4678 11.1421 20.6479 10.753 20.9939C10.3638 21.3399 10.1254 21.8244 10.0888 22.3439C10.0521 22.8633 10.2201 23.3765 10.5569 23.7738C10.8936 24.171 11.3723 24.4207 11.8908 24.4697ZM11.1899 22.4018C11.211 22.181 11.3134 21.976 11.4774 21.8267C11.6413 21.6773 11.855 21.5943 12.0767 21.5939C12.1046 21.5939 12.1326 21.5952 12.1609 21.5979C12.3364 21.6144 12.503 21.6827 12.6398 21.7939C12.7765 21.9052 12.8772 22.0545 12.929 22.2229C12.9809 22.3914 12.9817 22.5715 12.9312 22.7404C12.8808 22.9093 12.7814 23.0594 12.6456 23.1718C12.5098 23.2842 12.3438 23.3538 12.1684 23.3719C11.9931 23.3899 11.8163 23.3555 11.6605 23.2731C11.5047 23.1907 11.3768 23.0639 11.293 22.9088C11.2092 22.7537 11.1734 22.5773 11.1899 22.4018Z" fill="#0C9F77"/>
</svg>
