<svg width="40" height="39" viewBox="0 0 40 39" fill="none" xmlns="http://www.w3.org/2000/svg">
<path d="M35.3831 24.1224C35.7391 24.4785 35.7391 25.0557 35.3831 25.4118L30.27 30.5248C30.099 30.6957 29.8671 30.7917 29.6254 30.7917C29.3836 30.7917 29.1517 30.6957 28.9807 30.5248L25.8728 27.4169C25.5168 27.0608 25.5168 26.4836 25.8728 26.1275C26.2289 25.7715 26.8061 25.7715 27.1621 26.1275L29.6254 28.5908L34.0938 24.1224C34.4498 23.7665 35.027 23.7664 35.3831 24.1224ZM39.8297 27.3236C39.8297 32.3975 35.7018 36.5254 30.6279 36.5254C29.7205 36.526 28.8179 36.3919 27.9498 36.1274C24.102 38.0198 20.2042 38.975 16.3403 38.975C15.7905 38.975 15.2419 38.9557 14.6937 38.917C10.2792 38.6053 5.81979 37.0284 1.43951 34.2299C1.32304 34.1555 1.22501 34.0556 1.15284 33.9377C1.08068 33.8198 1.03626 33.687 1.02295 33.5495C0.652347 29.7225 1.42986 25.9889 3.21244 23.0365C4.90688 20.2299 7.4299 18.1888 10.5645 17.0698C9.337 15.611 8.47348 13.9006 8.04856 12.0644C7.56103 9.9576 7.69786 7.7928 8.43374 5.96882C9.71839 2.78506 12.6093 0.928486 16.3655 0.875152L16.3784 0.875L16.3913 0.875152C20.1475 0.928562 23.0384 2.78514 24.323 5.9689C25.059 7.7928 25.1957 9.9576 24.7082 12.0644C24.2833 13.9007 23.4196 15.6113 22.1919 17.0703C23.6696 17.5973 25.0122 18.3295 26.202 19.2582C27.516 18.5343 29.0245 18.1218 30.6278 18.1218C35.7018 18.1217 39.8297 22.2496 39.8297 27.3236ZM12.6049 16.5985C13.8776 17.8607 15.1472 18.5007 16.3784 18.5007C17.6096 18.5007 18.8792 17.8607 20.1519 16.5985C22.8827 13.8903 23.9026 9.79981 22.6321 6.65099C21.6224 4.14856 19.4019 2.74517 16.3784 2.69837C13.3549 2.74517 11.1343 4.14856 10.1246 6.65099C8.85418 9.79988 9.87406 13.8904 12.6049 16.5985ZM25.761 35.1294C23.1599 33.5018 21.426 30.6116 21.426 27.3236C21.426 24.5419 22.6669 22.0446 24.624 20.3558C23.4797 19.5478 22.1826 18.933 20.7514 18.5208C19.3345 19.7178 17.8667 20.3242 16.3784 20.3242C14.8901 20.3242 13.4224 19.7178 12.0054 18.5208C5.84927 20.2992 2.28176 25.8788 2.80013 32.9323C10.5132 37.7305 18.0437 38.4536 25.761 35.1294ZM38.0064 27.3236C38.0064 23.2551 34.6964 19.9451 30.6279 19.9451C26.5594 19.9451 23.2494 23.255 23.2494 27.3236C23.2494 31.3921 26.5594 34.702 30.6279 34.702C34.6965 34.702 38.0064 31.392 38.0064 27.3236Z" fill="#0C9F77"/>
</svg>
