<svg width="38" height="37" viewBox="0 0 38 37" fill="none" xmlns="http://www.w3.org/2000/svg">
<path d="M37.8075 17.875C37.8075 8.01625 29.7913 0 19.9325 0C10.0738 0 2.43566 7.55562 2.07129 17.1944L3.44629 17.2425C3.77629 8.33938 11.0225 1.36812 19.9325 1.36812C28.8425 1.36812 36.4325 8.7725 36.4325 17.8681C36.4325 24.97 31.7782 31.2881 25.1575 33.5088L25.7763 32.7319L24.7038 31.8725L22.6619 34.43C22.5175 34.6088 22.4763 34.8425 22.545 35.0625C22.6138 35.2825 22.7857 35.4475 23.0057 35.5162L25.9275 36.3962L26.3263 35.0831L25.5219 34.8425C32.7407 32.4638 37.8144 25.5887 37.8144 17.8681L37.8075 17.875Z" fill="#0C9F77"/>
<path d="M20.6201 3.4375C20.6201 3.0578 20.3123 2.75 19.9326 2.75C19.5529 2.75 19.2451 3.0578 19.2451 3.4375V4.8125C19.2451 5.1922 19.5529 5.5 19.9326 5.5C20.3123 5.5 20.6201 5.1922 20.6201 4.8125V3.4375Z" fill="#0C9F77"/>
<path d="M34.3701 17.1875H32.9951C32.6154 17.1875 32.3076 17.4953 32.3076 17.875C32.3076 18.2547 32.6154 18.5625 32.9951 18.5625H34.3701C34.7498 18.5625 35.0576 18.2547 35.0576 17.875C35.0576 17.4953 34.7498 17.1875 34.3701 17.1875Z" fill="#0C9F77"/>
<path d="M29.6527 7.18539L28.6805 8.15766C28.412 8.42615 28.412 8.86145 28.6805 9.12993C28.949 9.39842 29.3843 9.39842 29.6527 9.12993L30.625 8.15766C30.8935 7.88918 30.8935 7.45388 30.625 7.18539C30.3565 6.91691 29.9212 6.91691 29.6527 7.18539Z" fill="#0C9F77"/>
<path d="M29.6479 26.6241C29.3794 26.3556 28.9441 26.3556 28.6756 26.6241C28.4071 26.8926 28.4071 27.3279 28.6756 27.5964L29.6479 28.5686C29.9163 28.8371 30.3516 28.8371 30.6201 28.5686C30.8886 28.3002 30.8886 27.8649 30.6201 27.5964L29.6479 26.6241Z" fill="#0C9F77"/>
<path d="M10.2074 7.17463C9.93895 6.90615 9.50364 6.90615 9.23516 7.17463C8.96667 7.44312 8.96667 7.87842 9.23516 8.1469L10.2074 9.11917C10.4759 9.38766 10.9112 9.38766 11.1797 9.11917C11.4482 8.85069 11.4482 8.41539 11.1797 8.1469L10.2074 7.17463Z" fill="#0C9F77"/>
<path d="M20.7375 19.7725L23.0888 22.5981C23.3294 22.8869 23.7625 22.9281 24.0581 22.6875C24.3469 22.4469 24.3881 22.0138 24.1475 21.7181L21.7481 18.8375C21.8994 18.5488 21.9956 18.2256 21.9956 17.875C21.9956 16.9813 21.4181 16.225 20.6206 15.9363V8.25C20.6206 7.87187 20.3113 7.5625 19.9331 7.5625C19.555 7.5625 19.2456 7.87187 19.2456 8.25V15.9363C18.3244 16.2663 17.6988 17.215 17.9119 18.2875C17.9934 18.6783 18.1859 19.0374 18.4664 19.3215C18.7469 19.6056 19.1034 19.8028 19.4931 19.8894C19.9331 19.9788 20.3594 19.9306 20.7306 19.7725H20.7375ZM19.2456 17.875C19.2456 17.4969 19.555 17.1875 19.9331 17.1875C20.3113 17.1875 20.6206 17.4969 20.6206 17.875C20.6206 18.2531 20.3113 18.5625 19.9331 18.5625C19.555 18.5625 19.2456 18.2531 19.2456 17.875ZM5.55751 23.6637C5.66751 23.9044 5.91501 24.0625 6.18313 24.0625H8.93313V24.75C8.93313 25.1281 9.24251 25.4375 9.62063 25.4375C9.99876 25.4375 10.3081 25.1281 10.3081 24.75V24.0625H10.9956C11.3738 24.0625 11.6831 23.7531 11.6831 23.375C11.6831 22.9969 11.3738 22.6875 10.9956 22.6875H10.3081V19.25C10.3081 18.9613 10.1294 18.7 9.85438 18.6038C9.57938 18.5075 9.27688 18.59 9.09126 18.81L5.65376 22.935C5.5704 23.0349 5.5171 23.1564 5.50006 23.2854C5.48302 23.4144 5.50294 23.5456 5.55751 23.6637ZM8.93313 21.1475V22.6875H7.65438L8.93313 21.1475ZM15.8081 36.4375C16.1725 36.5475 16.5575 36.3413 16.6675 35.9769L18.5306 29.7619C18.5925 29.5556 18.5513 29.3287 18.4206 29.1569C18.29 28.985 18.0838 28.8819 17.8706 28.8819H13.0581C12.8038 28.8819 12.57 29.0194 12.4531 29.2463C12.3363 29.4731 12.35 29.7412 12.4875 29.9544L13.4844 31.4463C13.6975 31.7625 14.1238 31.845 14.44 31.6388C14.7563 31.4256 14.8388 30.9994 14.6325 30.6831L14.3506 30.2638H16.9563L15.3544 35.5919C15.2444 35.9563 15.4506 36.3413 15.815 36.4513L15.8081 36.4375Z" fill="#0C9F77"/>
<path d="M15.5252 23.227L3.57101 32.0372C3.26536 32.2625 3.20019 32.6928 3.42546 32.9985C3.65072 33.3042 4.08112 33.3693 4.38677 33.1441L16.341 24.3339C16.6466 24.1086 16.7118 23.6782 16.4865 23.3726C16.2613 23.0669 15.8309 23.0017 15.5252 23.227Z" fill="#0C9F77"/>
<path d="M4.80769 24.75C4.80769 25.1282 4.49831 25.4375 4.12019 25.4375H0.682687C0.547013 25.4363 0.414719 25.3951 0.302403 25.3189C0.190087 25.2428 0.10275 25.1352 0.0513485 25.0097C-5.29489e-05 24.8841 -0.0132296 24.7462 0.0134714 24.6131C0.0401723 24.4801 0.105562 24.3579 0.201437 24.2619L3.39831 21.065C3.39831 21.065 3.43956 21.0032 3.43956 20.9688C3.43956 20.3982 2.97894 19.9307 2.40831 19.9307C1.98206 19.9307 1.61081 20.1919 1.45269 20.57C1.34956 20.8175 1.09519 20.9619 0.833937 20.9619C0.359562 20.9619 0.00206188 20.4807 0.180812 20.0475C0.363519 19.6069 0.672499 19.2301 1.06886 18.9646C1.46523 18.6991 1.93126 18.5569 2.40831 18.5557C3.72144 18.5557 4.79394 19.6144 4.81456 20.9275C4.81456 21.3538 4.64269 21.7594 4.34706 22.0619L2.35331 24.0557H4.13394C4.51206 24.0557 4.82144 24.365 4.82144 24.7432L4.80769 24.75Z" fill="#0C9F77"/>
</svg>
