<svg width="512" height="512" viewBox="0 0 512 512" fill="none" xmlns="http://www.w3.org/2000/svg">
<g clip-path="url(#clip0_326_5330)">
<path d="M256 0C114.62 0 0 114.62 0 256C0 397.38 114.62 512 256 512C397.38 512 512 397.38 512 256C512 114.62 397.38 0 256 0Z" fill="white"/>
<path d="M284.007 232.833L393.597 105.443H367.628L272.47 216.054L196.468 105.443H108.809L223.739 272.706L108.809 406.294H134.78L235.269 289.485L315.532 406.294H403.192L284 232.833H284.007ZM144.137 124.994H184.027L367.639 387.633H327.75L144.137 124.994Z" fill="black"/>
</g>
<defs>
<clipPath id="clip0_326_5330">
<rect width="512" height="512" fill="white"/>
</clipPath>
</defs>
</svg>
